# xmcd
#
# Track frame offsets: 
#        150
#        22664
#        42398
#        65998
#        87926
#        108482
#        120832
#        135509
#        148848
#        167440
#        182597
#        189367
#        209888
#        218950
#        233188
#        254225
#        274544
#
# Disc length: 3830 seconds
#
# Revision: 0
# Processed by: cddbd v1.5.2PL0 Copyright (c) Steve Scherf et al.
# Submitted via: ExactAudioCopy v0.99pb5
#
DISCID=fc0ef411
DTITLE=Alan Parsons Project  - The Turn Of A Friendly Card [Remaster 2
DTITLE=008] (1980) 
DYEAR=1900
DGENRE=
TTITLE0=The Alan Parsons Project - May Be A Price To Pay
TTITLE1=The Alan Parsons Project - Games People Play
TTITLE2=The Alan Parsons Project - Time
TTITLE3=The Alan Parsons Project - I Don't Wanna Go Home
TTITLE4=The Alan Parsons Project - The Gold Bug
TTITLE5=The Alan Parsons Project - The Turn Of A Friendly Card (Part O
TTITLE5=ne)
TTITLE6=The Alan Parsons Project - Snake Eyes
TTITLE7=The Alan Parsons Project - The Ace Of Swords
TTITLE8=The Alan Parsons Project - Nothing Left To Lose
TTITLE9=The Alan Parsons Project - The Turn Of A Friendly Card (Part T
TTITLE9=wo)
TTITLE10=The Alan Parsons Project - May Be A Price To Pay (Intro - Dem
TTITLE10=o)
TTITLE11=The Alan Parsons Project - Nothing Left To Lose (Basic Backin
TTITLE11=g Track)
TTITLE12=The Alan Parsons Project - Nothing Left To Lose (Chris Rainbo
TTITLE12=w Vocal Overdub Combilation)
TTITLE13=The Alan Parsons Project - Nothing Left To Lose (Early Studio
TTITLE13=Version With Eric's Guide Vocal)
TTITLE14=The Alan Parsons Project - Time (Early Studio Attempt)
TTITLE15=The Alan Parsons Project - Games People Play (Rough Mix)
TTITLE16=The Alan Parsons Project - The Gold Bug (Demo)
EXTD=
EXTT0=
EXTT1=
EXTT2=
EXTT3=
EXTT4=
EXTT5=
EXTT6=
EXTT7=
EXTT8=
EXTT9=
EXTT10=
EXTT11=
EXTT12=
EXTT13=
EXTT14=
EXTT15=
EXTT16=
PLAYORDER=
